<svg xmlns="http://www.w3.org/2000/svg" version="1.1" xmlns:xlink="http://www.w3.org/1999/xlink" xmlns:svgjs="http://svgjs.com/svgjs" width="1440" height="560" preserveAspectRatio="none" viewBox="0 0 1440 560"><g mask="url(&quot;#SvgjsMask1000&quot;)" fill="none"><rect width="1440" height="560" x="0" y="0" fill="#0e2a47"></rect><path d="M1352.79 327.58L1352.79 331.31L1383.96 331.31L1383.96 327.58zM1377.36 329.45 a6.6 6.6 0 1 0 13.2 0 a6.6 6.6 0 1 0 -13.2 0zM1348.09 354.96L1346.66 358.41L1370.48 368.27L1371.91 364.83zM1364.59 366.55 a6.6 6.6 0 1 0 13.2 0 a6.6 6.6 0 1 0 -13.2 0zM1333.26 378.45L1330.63 381.09L1341.31 391.77L1343.95 389.14zM1336.03 390.46 a6.6 6.6 0 1 0 13.2 0 a6.6 6.6 0 1 0 -13.2 0zM1310.58 394.49L1307.14 395.91L1316.47 418.46L1319.92 417.03zM1311.6 417.74 a6.6 6.6 0 1 0 13.2 0 a6.6 6.6 0 1 0 -13.2 0zM1283.49 400.62L1279.76 400.62L1279.76 412.28L1283.49 412.28zM1275.02 412.28 a6.6 6.6 0 1 0 13.2 0 a6.6 6.6 0 1 0 -13.2 0zM1256.11 395.91L1252.67 394.49L1242.41 419.24L1245.86 420.66zM1237.54 419.95 a6.6 6.6 0 1 0 13.2 0 a6.6 6.6 0 1 0 -13.2 0zM1232.62 381.09L1229.98 378.45L1205.54 402.9L1208.17 405.53zM1200.25 404.22 a6.6 6.6 0 1 0 13.2 0 a6.6 6.6 0 1 0 -13.2 0zM1216.58 358.41L1215.16 354.96L1193.35 363.99L1194.78 367.44zM1187.47 365.71 a6.6 6.6 0 1 0 13.2 0 a6.6 6.6 0 1 0 -13.2 0zM1210.45 331.31L1210.45 327.58L1177.99 327.58L1177.99 331.31zM1171.39 329.45 a6.6 6.6 0 1 0 13.2 0 a6.6 6.6 0 1 0 -13.2 0zM1215.16 303.93L1216.58 300.49L1202.34 294.59L1200.91 298.03zM1195.02 296.31 a6.6 6.6 0 1 0 13.2 0 a6.6 6.6 0 1 0 -13.2 0zM1229.98 280.44L1232.62 277.81L1225.74 270.93L1223.1 273.56zM1217.82 272.24 a6.6 6.6 0 1 0 13.2 0 a6.6 6.6 0 1 0 -13.2 0zM1252.67 264.41L1256.11 262.98L1247.76 242.81L1244.31 244.24zM1239.43 243.53 a6.6 6.6 0 1 0 13.2 0 a6.6 6.6 0 1 0 -13.2 0zM1279.76 258.28L1283.49 258.28L1283.49 229.39L1279.76 229.39zM1275.02 229.39 a6.6 6.6 0 1 0 13.2 0 a6.6 6.6 0 1 0 -13.2 0zM1307.14 262.98L1310.58 264.41L1321.93 237.01L1318.49 235.58zM1313.61 236.29 a6.6 6.6 0 1 0 13.2 0 a6.6 6.6 0 1 0 -13.2 0zM1330.63 277.81L1333.26 280.44L1356.39 257.31L1353.76 254.68zM1348.48 255.99 a6.6 6.6 0 1 0 13.2 0 a6.6 6.6 0 1 0 -13.2 0zM1346.66 300.49L1348.09 303.93L1365.36 296.78L1363.94 293.33zM1358.05 295.06 a6.6 6.6 0 1 0 13.2 0 a6.6 6.6 0 1 0 -13.2 0zM1210.43 329.45 a71.19 71.19 0 1 0 142.38 0 a71.19 71.19 0 1 0 -142.38 0z" fill="#488fdb"></path><path d="M1269.98 259.21 A70.1936 70.1936 0 0 1 1348.32 354.35M1348.32 354.35 A142.3872 142.3872 0 0 0 1269.98 259.21" fill="#2672c3" fill-rule="nonzero"></path><path d="M1260.11 394.17 a3.56 3.56 0 1 0 7.12 0 a3.56 3.56 0 1 0 -7.12 0zM1316.96 370.11 a9.97 9.97 0 1 0 19.94 0 a9.97 9.97 0 1 0 -19.94 0zM1327.97 290.46 a5.7 5.7 0 1 0 11.4 0 a5.7 5.7 0 1 0 -11.4 0zM1222.9 338.17 a14.24 14.24 0 1 0 28.48 0 a14.24 14.24 0 1 0 -28.48 0zM1268.4 305.37 a14.24 14.24 0 1 0 28.48 0 a14.24 14.24 0 1 0 -28.48 0zM1309.83 316.68 a6.41 6.41 0 1 0 12.82 0 a6.41 6.41 0 1 0 -12.82 0zM1290.39 273.71 a4.98 4.98 0 1 0 9.96 0 a4.98 4.98 0 1 0 -9.96 0zM1288.66 345.13 a11.39 11.39 0 1 0 22.78 0 a11.39 11.39 0 1 0 -22.78 0zM1260.95 365.65 a9.97 9.97 0 1 0 19.94 0 a9.97 9.97 0 1 0 -19.94 0zM1222.24 293.45 a8.54 8.54 0 1 0 17.08 0 a8.54 8.54 0 1 0 -17.08 0z" fill="#2672c3" fill-rule="nonzero"></path><path d="M130.83 420.98L130.83 423.31L139.22 423.31L139.22 420.98zM135.09 422.15 a4.13 4.13 0 1 0 8.26 0 a4.13 4.13 0 1 0 -8.26 0zM127.89 438.1L127 440.25L143.64 447.14L144.53 444.99zM139.96 446.06 a4.13 4.13 0 1 0 8.26 0 a4.13 4.13 0 1 0 -8.26 0zM118.63 452.78L116.98 454.43L125.04 462.49L126.69 460.84zM121.74 461.66 a4.13 4.13 0 1 0 8.26 0 a4.13 4.13 0 1 0 -8.26 0zM104.45 462.8L102.3 463.69L109.43 480.91L111.58 480.02zM106.38 480.47 a4.13 4.13 0 1 0 8.26 0 a4.13 4.13 0 1 0 -8.26 0zM87.52 466.63L85.19 466.63L85.19 472.25L87.52 472.25zM82.22 472.25 a4.13 4.13 0 1 0 8.26 0 a4.13 4.13 0 1 0 -8.26 0zM70.41 463.69L68.25 462.8L60.05 482.61L62.2 483.5zM57 483.05 a4.13 4.13 0 1 0 8.26 0 a4.13 4.13 0 1 0 -8.26 0zM55.72 454.43L54.08 452.78L44.51 462.35L46.16 463.99zM41.2 463.17 a4.13 4.13 0 1 0 8.26 0 a4.13 4.13 0 1 0 -8.26 0zM45.7 440.25L44.81 438.1L27.66 445.2L28.56 447.35zM23.98 446.27 a4.13 4.13 0 1 0 8.26 0 a4.13 4.13 0 1 0 -8.26 0zM41.87 423.31L41.87 420.98L28.54 420.98L28.54 423.31zM24.41 422.15 a4.13 4.13 0 1 0 8.26 0 a4.13 4.13 0 1 0 -8.26 0zM44.81 406.2L45.7 404.05L27.37 396.46L26.48 398.61zM22.8 397.54 a4.13 4.13 0 1 0 8.26 0 a4.13 4.13 0 1 0 -8.26 0zM54.08 391.52L55.72 389.87L49.58 383.73L47.93 385.38zM44.62 384.55 a4.13 4.13 0 1 0 8.26 0 a4.13 4.13 0 1 0 -8.26 0zM68.25 381.5L70.41 380.61L64.1 365.39L61.95 366.28zM58.9 365.84 a4.13 4.13 0 1 0 8.26 0 a4.13 4.13 0 1 0 -8.26 0zM85.19 377.67L87.52 377.67L87.52 356.93L85.19 356.93zM82.22 356.93 a4.13 4.13 0 1 0 8.26 0 a4.13 4.13 0 1 0 -8.26 0zM102.3 380.61L104.45 381.5L109.89 368.37L107.74 367.48zM104.68 367.93 a4.13 4.13 0 1 0 8.26 0 a4.13 4.13 0 1 0 -8.26 0zM116.98 389.87L118.63 391.52L123.2 386.95L121.56 385.3zM118.25 386.12 a4.13 4.13 0 1 0 8.26 0 a4.13 4.13 0 1 0 -8.26 0zM127 404.05L127.89 406.2L138.71 401.72L137.82 399.57zM134.14 400.65 a4.13 4.13 0 1 0 8.26 0 a4.13 4.13 0 1 0 -8.26 0zM41.85 422.15 a44.5 44.5 0 1 0 89 0 a44.5 44.5 0 1 0 -89 0z" fill="#488fdb"></path><path d="M119.35 452 A43.496 43.496 0 0 1 44.03 435.89M44.03 435.89 A88.992 88.992 0 0 0 119.35 452" fill="#2672c3" fill-rule="nonzero"></path><path d="M113.51 434.7 a7.56 7.56 0 1 0 15.12 0 a7.56 7.56 0 1 0 -15.12 0zM56.26 394.58 a8.9 8.9 0 1 0 17.8 0 a8.9 8.9 0 1 0 -17.8 0zM73.51 432.92 a8.9 8.9 0 1 0 17.8 0 a8.9 8.9 0 1 0 -17.8 0zM106.21 455.69 a3.56 3.56 0 1 0 7.12 0 a3.56 3.56 0 1 0 -7.12 0zM42.83 415.41 a7.56 7.56 0 1 0 15.12 0 a7.56 7.56 0 1 0 -15.12 0zM106.68 404.15 a8.9 8.9 0 1 0 17.8 0 a8.9 8.9 0 1 0 -17.8 0zM74.94 410.91 a2.67 2.67 0 1 0 5.34 0 a2.67 2.67 0 1 0 -5.34 0zM45.59 438.38 a4 4 0 1 0 8 0 a4 4 0 1 0 -8 0zM81.39 385.46 a5.78 5.78 0 1 0 11.56 0 a5.78 5.78 0 1 0 -11.56 0zM55.71 451.63 a2.67 2.67 0 1 0 5.34 0 a2.67 2.67 0 1 0 -5.34 0z" fill="#2672c3" fill-rule="nonzero"></path><path d="M1083 188.29L1083 192.02L1106.29 192.02L1106.29 188.29zM1099.69 190.15 a6.6 6.6 0 1 0 13.2 0 a6.6 6.6 0 1 0 -13.2 0zM1078.29 215.67L1076.87 219.11L1092.58 225.62L1094.01 222.17zM1086.69 223.9 a6.6 6.6 0 1 0 13.2 0 a6.6 6.6 0 1 0 -13.2 0zM1063.47 239.16L1060.83 241.79L1073.09 254.05L1075.72 251.41zM1067.81 252.73 a6.6 6.6 0 1 0 13.2 0 a6.6 6.6 0 1 0 -13.2 0zM1040.78 255.19L1037.34 256.62L1047.53 281.23L1050.98 279.8zM1042.66 280.52 a6.6 6.6 0 1 0 13.2 0 a6.6 6.6 0 1 0 -13.2 0zM1013.69 261.32L1009.96 261.32L1009.96 287.98L1013.69 287.98zM1005.23 287.98 a6.6 6.6 0 1 0 13.2 0 a6.6 6.6 0 1 0 -13.2 0zM986.31 256.62L982.87 255.19L969.6 287.23L973.04 288.66zM964.72 287.94 a6.6 6.6 0 1 0 13.2 0 a6.6 6.6 0 1 0 -13.2 0zM962.82 241.79L960.18 239.16L943.36 255.99L945.99 258.62zM938.07 257.31 a6.6 6.6 0 1 0 13.2 0 a6.6 6.6 0 1 0 -13.2 0zM946.79 219.11L945.36 215.67L925.23 224L926.66 227.45zM919.34 225.73 a6.6 6.6 0 1 0 13.2 0 a6.6 6.6 0 1 0 -13.2 0zM940.66 192.02L940.66 188.29L918.71 188.29L918.71 192.02zM912.11 190.15 a6.6 6.6 0 1 0 13.2 0 a6.6 6.6 0 1 0 -13.2 0zM945.36 164.64L946.79 161.19L928.82 153.75L927.39 157.2zM921.51 155.47 a6.6 6.6 0 1 0 13.2 0 a6.6 6.6 0 1 0 -13.2 0zM960.18 141.15L962.82 138.51L950.08 125.77L947.44 128.4zM942.16 127.09 a6.6 6.6 0 1 0 13.2 0 a6.6 6.6 0 1 0 -13.2 0zM982.87 125.11L986.31 123.69L976.87 100.89L973.43 102.32zM968.55 101.61 a6.6 6.6 0 1 0 13.2 0 a6.6 6.6 0 1 0 -13.2 0zM1009.96 118.98L1013.69 118.98L1013.69 94.2L1009.96 94.2zM1005.23 94.2 a6.6 6.6 0 1 0 13.2 0 a6.6 6.6 0 1 0 -13.2 0zM1037.34 123.69L1040.78 125.11L1054.07 93.05L1050.62 91.62zM1045.75 92.33 a6.6 6.6 0 1 0 13.2 0 a6.6 6.6 0 1 0 -13.2 0zM1060.83 138.51L1063.47 141.15L1070.28 134.34L1067.64 131.7zM1062.36 133.02 a6.6 6.6 0 1 0 13.2 0 a6.6 6.6 0 1 0 -13.2 0zM1076.87 161.19L1078.29 164.64L1087.3 160.91L1085.87 157.46zM1079.99 159.19 a6.6 6.6 0 1 0 13.2 0 a6.6 6.6 0 1 0 -13.2 0zM940.64 190.15 a71.19 71.19 0 1 0 142.38 0 a71.19 71.19 0 1 0 -142.38 0z" fill="#488fdb"></path><path d="M1082.2 179.35 A70.1936 70.1936 0 0 1 986.14 256.55M986.14 256.55 A142.3872 142.3872 0 0 0 1082.2 179.35" fill="#2672c3" fill-rule="nonzero"></path><path d="M1043.07 241.32 a7.12 7.12 0 1 0 14.24 0 a7.12 7.12 0 1 0 -14.24 0zM978.72 215.91 a14.24 14.24 0 1 0 28.48 0 a14.24 14.24 0 1 0 -28.48 0zM1043.88 212.78 a7.12 7.12 0 1 0 14.24 0 a7.12 7.12 0 1 0 -14.24 0zM951.25 213.02 a6.41 6.41 0 1 0 12.82 0 a6.41 6.41 0 1 0 -12.82 0zM1026.88 128.63 a5.7 5.7 0 1 0 11.4 0 a5.7 5.7 0 1 0 -11.4 0zM1006.09 154.98 a10.68 10.68 0 1 0 21.36 0 a10.68 10.68 0 1 0 -21.36 0zM1040.23 186.95 a4.98 4.98 0 1 0 9.96 0 a4.98 4.98 0 1 0 -9.96 0zM945.48 183.89 a8.54 8.54 0 1 0 17.08 0 a8.54 8.54 0 1 0 -17.08 0zM1056.15 169.24 a3.56 3.56 0 1 0 7.12 0 a3.56 3.56 0 1 0 -7.12 0zM951.74 154.54 a6.41 6.41 0 1 0 12.82 0 a6.41 6.41 0 1 0 -12.82 0z" fill="#2672c3" fill-rule="nonzero"></path><path d="M977.34 430.65L977.34 432.51L991.41 432.51L991.41 430.65zM988.11 431.58 a3.3 3.3 0 1 0 6.6 0 a3.3 3.3 0 1 0 -6.6 0zM974.99 444.34L974.28 446.06L988.79 452.07L989.5 450.35zM985.85 451.21 a3.3 3.3 0 1 0 6.6 0 a3.3 3.3 0 1 0 -6.6 0zM967.58 456.08L966.26 457.4L970.98 462.12L972.29 460.8zM968.34 461.46 a3.3 3.3 0 1 0 6.6 0 a3.3 3.3 0 1 0 -6.6 0zM956.24 464.1L954.51 464.81L959.18 476.08L960.9 475.37zM956.74 475.73 a3.3 3.3 0 1 0 6.6 0 a3.3 3.3 0 1 0 -6.6 0zM942.69 467.16L940.83 467.16L940.83 476.63L942.69 476.63zM938.46 476.63 a3.3 3.3 0 1 0 6.6 0 a3.3 3.3 0 1 0 -6.6 0zM929 464.81L927.28 464.1L922 476.85L923.72 477.56zM919.56 477.21 a3.3 3.3 0 1 0 6.6 0 a3.3 3.3 0 1 0 -6.6 0zM917.25 457.4L915.94 456.08L911.38 460.64L912.7 461.96zM908.74 461.3 a3.3 3.3 0 1 0 6.6 0 a3.3 3.3 0 1 0 -6.6 0zM909.24 446.06L908.52 444.34L895.7 449.65L896.41 451.37zM892.76 450.51 a3.3 3.3 0 1 0 6.6 0 a3.3 3.3 0 1 0 -6.6 0zM906.17 432.51L906.17 430.65L898.45 430.65L898.45 432.51zM895.15 431.58 a3.3 3.3 0 1 0 6.6 0 a3.3 3.3 0 1 0 -6.6 0zM908.52 418.82L909.24 417.1L902.89 414.47L902.18 416.19zM899.23 415.33 a3.3 3.3 0 1 0 6.6 0 a3.3 3.3 0 1 0 -6.6 0zM915.94 407.08L917.25 405.76L906.25 394.76L904.93 396.07zM902.29 395.42 a3.3 3.3 0 1 0 6.6 0 a3.3 3.3 0 1 0 -6.6 0zM927.28 399.06L929 398.35L922.31 382.19L920.59 382.9zM918.15 382.55 a3.3 3.3 0 1 0 6.6 0 a3.3 3.3 0 1 0 -6.6 0zM940.83 396L942.69 396L942.69 385.79L940.83 385.79zM938.46 385.79 a3.3 3.3 0 1 0 6.6 0 a3.3 3.3 0 1 0 -6.6 0zM954.51 398.35L956.24 399.06L961.47 386.41L959.75 385.7zM957.31 386.06 a3.3 3.3 0 1 0 6.6 0 a3.3 3.3 0 1 0 -6.6 0zM966.26 405.76L967.58 407.08L972.05 402.6L970.74 401.28zM968.1 401.94 a3.3 3.3 0 1 0 6.6 0 a3.3 3.3 0 1 0 -6.6 0zM974.28 417.1L974.99 418.82L983.51 415.3L982.79 413.57zM979.85 414.43 a3.3 3.3 0 1 0 6.6 0 a3.3 3.3 0 1 0 -6.6 0zM906.16 431.58 a35.6 35.6 0 1 0 71.2 0 a35.6 35.6 0 1 0 -71.2 0z" fill="#488fdb"></path><path d="M971.51 412.04 A34.5968 34.5968 0 0 1 943.87 467.11M943.87 467.11 A71.1936 71.1936 0 0 0 971.51 412.04" fill="#2672c3" fill-rule="nonzero"></path><path d="M940.82 401.31 a4.98 4.98 0 1 0 9.96 0 a4.98 4.98 0 1 0 -9.96 0zM939.84 423.95 a7.12 7.12 0 1 0 14.24 0 a7.12 7.12 0 1 0 -14.24 0zM947.5 439.98 a1.78 1.78 0 1 0 3.56 0 a1.78 1.78 0 1 0 -3.56 0zM936.33 463.63 a3.2 3.2 0 1 0 6.4 0 a3.2 3.2 0 1 0 -6.4 0zM950.73 457.6 a5.7 5.7 0 1 0 11.4 0 a5.7 5.7 0 1 0 -11.4 0zM919.09 408.39 a7.12 7.12 0 1 0 14.24 0 a7.12 7.12 0 1 0 -14.24 0zM942.29 448.8 a1.42 1.42 0 1 0 2.84 0 a1.42 1.42 0 1 0 -2.84 0zM909.01 427.57 a7.12 7.12 0 1 0 14.24 0 a7.12 7.12 0 1 0 -14.24 0zM927.66 437.83 a4.63 4.63 0 1 0 9.26 0 a4.63 4.63 0 1 0 -9.26 0zM913.4 451.77 a2.85 2.85 0 1 0 5.7 0 a2.85 2.85 0 1 0 -5.7 0z" fill="#2672c3" fill-rule="nonzero"></path><path d="M597.1 206.88L597.1 210.6L613.64 210.6L613.64 206.88zM607.04 208.74 a6.6 6.6 0 1 0 13.2 0 a6.6 6.6 0 1 0 -13.2 0zM592.4 234.25L590.97 237.7L608.82 245.09L610.25 241.65zM602.93 243.37 a6.6 6.6 0 1 0 13.2 0 a6.6 6.6 0 1 0 -13.2 0zM577.57 257.75L574.94 260.38L585.55 270.99L588.18 268.35zM580.26 269.67 a6.6 6.6 0 1 0 13.2 0 a6.6 6.6 0 1 0 -13.2 0zM554.89 273.78L551.45 275.21L557.35 289.45L560.79 288.02zM552.47 288.74 a6.6 6.6 0 1 0 13.2 0 a6.6 6.6 0 1 0 -13.2 0zM527.8 279.91L524.07 279.91L524.07 293.53L527.8 293.53zM519.33 293.53 a6.6 6.6 0 1 0 13.2 0 a6.6 6.6 0 1 0 -13.2 0zM500.42 275.21L496.97 273.78L487.33 297.07L490.77 298.5zM482.45 297.78 a6.6 6.6 0 1 0 13.2 0 a6.6 6.6 0 1 0 -13.2 0zM476.93 260.38L474.29 257.75L464.45 267.58L467.09 270.22zM459.17 268.9 a6.6 6.6 0 1 0 13.2 0 a6.6 6.6 0 1 0 -13.2 0zM460.89 237.7L459.47 234.25L431.38 245.89L432.81 249.33zM425.49 247.61 a6.6 6.6 0 1 0 13.2 0 a6.6 6.6 0 1 0 -13.2 0zM454.76 210.6L454.76 206.88L434.09 206.88L434.09 210.6zM427.49 208.74 a6.6 6.6 0 1 0 13.2 0 a6.6 6.6 0 1 0 -13.2 0zM459.47 183.23L460.89 179.78L435.36 169.21L433.93 172.65zM428.04 170.93 a6.6 6.6 0 1 0 13.2 0 a6.6 6.6 0 1 0 -13.2 0zM474.29 159.73L476.93 157.1L455.98 136.15L453.35 138.79zM448.06 137.47 a6.6 6.6 0 1 0 13.2 0 a6.6 6.6 0 1 0 -13.2 0zM496.97 143.7L500.42 142.28L494.4 127.74L490.96 129.17zM486.08 128.46 a6.6 6.6 0 1 0 13.2 0 a6.6 6.6 0 1 0 -13.2 0zM524.07 137.57L527.8 137.57L527.8 114.73L524.07 114.73zM519.33 114.73 a6.6 6.6 0 1 0 13.2 0 a6.6 6.6 0 1 0 -13.2 0zM551.45 142.28L554.89 143.7L564.43 120.68L560.98 119.25zM556.1 119.97 a6.6 6.6 0 1 0 13.2 0 a6.6 6.6 0 1 0 -13.2 0zM574.94 157.1L577.57 159.73L598.38 138.93L595.74 136.3zM590.46 137.61 a6.6 6.6 0 1 0 13.2 0 a6.6 6.6 0 1 0 -13.2 0zM590.97 179.78L592.4 183.23L620.77 171.47L619.34 168.03zM613.46 169.75 a6.6 6.6 0 1 0 13.2 0 a6.6 6.6 0 1 0 -13.2 0zM454.74 208.74 a71.19 71.19 0 1 0 142.38 0 a71.19 71.19 0 1 0 -142.38 0z" fill="#488fdb"></path><path d="M570.79 264.02 A70.1936 70.1936 0 0 1 455.65 220.1M455.65 220.1 A142.3872 142.3872 0 0 0 570.79 264.02" fill="#2672c3" fill-rule="nonzero"></path><path d="M546.35 255.1 a13.53 13.53 0 1 0 27.06 0 a13.53 13.53 0 1 0 -27.06 0zM498.6 154.27 a14.24 14.24 0 1 0 28.48 0 a14.24 14.24 0 1 0 -28.48 0zM549.59 181 a14.24 14.24 0 1 0 28.48 0 a14.24 14.24 0 1 0 -28.48 0zM494.02 188.28 a7.12 7.12 0 1 0 14.24 0 a7.12 7.12 0 1 0 -14.24 0zM488.1 223.3 a13.53 13.53 0 1 0 27.06 0 a13.53 13.53 0 1 0 -27.06 0zM504.82 273.75 a3.56 3.56 0 1 0 7.12 0 a3.56 3.56 0 1 0 -7.12 0zM585.47 231.56 a3.56 3.56 0 1 0 7.12 0 a3.56 3.56 0 1 0 -7.12 0zM525.57 201.86 a7.83 7.83 0 1 0 15.66 0 a7.83 7.83 0 1 0 -15.66 0zM462.36 178.49 a4.98 4.98 0 1 0 9.96 0 a4.98 4.98 0 1 0 -9.96 0zM589.05 202.14 a3.56 3.56 0 1 0 7.12 0 a3.56 3.56 0 1 0 -7.12 0z" fill="#2672c3" fill-rule="nonzero"></path><path d="M510.93 463.26L510.93 465.59L521.19 465.59L521.19 463.26zM517.06 464.42 a4.13 4.13 0 1 0 8.26 0 a4.13 4.13 0 1 0 -8.26 0zM507.99 480.37L507.1 482.52L521.81 488.61L522.7 486.46zM518.12 487.54 a4.13 4.13 0 1 0 8.26 0 a4.13 4.13 0 1 0 -8.26 0zM498.73 495.05L497.08 496.7L512.42 512.04L514.06 510.39zM509.11 511.21 a4.13 4.13 0 1 0 8.26 0 a4.13 4.13 0 1 0 -8.26 0zM484.55 505.07L482.4 505.96L486.59 516.09L488.74 515.2zM483.54 515.64 a4.13 4.13 0 1 0 8.26 0 a4.13 4.13 0 1 0 -8.26 0zM467.62 508.9L465.29 508.9L465.29 514.42L467.62 514.42zM462.32 514.42 a4.13 4.13 0 1 0 8.26 0 a4.13 4.13 0 1 0 -8.26 0zM450.5 505.96L448.35 505.07L444.94 513.32L447.09 514.21zM441.88 513.77 a4.13 4.13 0 1 0 8.26 0 a4.13 4.13 0 1 0 -8.26 0zM435.82 496.7L434.17 495.05L420.77 508.46L422.41 510.11zM417.46 509.28 a4.13 4.13 0 1 0 8.26 0 a4.13 4.13 0 1 0 -8.26 0zM425.8 482.52L424.91 480.37L414.56 484.65L415.45 486.81zM410.88 485.73 a4.13 4.13 0 1 0 8.26 0 a4.13 4.13 0 1 0 -8.26 0zM421.97 465.59L421.97 463.26L415.01 463.26L415.01 465.59zM410.88 464.42 a4.13 4.13 0 1 0 8.26 0 a4.13 4.13 0 1 0 -8.26 0zM424.91 448.48L425.8 446.32L417.79 443.01L416.9 445.16zM413.22 444.08 a4.13 4.13 0 1 0 8.26 0 a4.13 4.13 0 1 0 -8.26 0zM434.17 433.79L435.82 432.15L425.07 421.39L423.42 423.04zM420.11 422.22 a4.13 4.13 0 1 0 8.26 0 a4.13 4.13 0 1 0 -8.26 0zM448.35 423.77L450.5 422.88L446.92 414.23L444.77 415.12zM441.71 414.67 a4.13 4.13 0 1 0 8.26 0 a4.13 4.13 0 1 0 -8.26 0zM465.29 419.94L467.62 419.94L467.62 399.46L465.29 399.46zM462.32 399.46 a4.13 4.13 0 1 0 8.26 0 a4.13 4.13 0 1 0 -8.26 0zM482.4 422.88L484.55 423.77L487.4 416.89L485.25 416zM482.19 416.45 a4.13 4.13 0 1 0 8.26 0 a4.13 4.13 0 1 0 -8.26 0zM497.08 432.15L498.73 433.79L509.79 422.73L508.14 421.09zM504.83 421.91 a4.13 4.13 0 1 0 8.26 0 a4.13 4.13 0 1 0 -8.26 0zM507.1 446.32L507.99 448.48L516.25 445.06L515.36 442.9zM511.67 443.98 a4.13 4.13 0 1 0 8.26 0 a4.13 4.13 0 1 0 -8.26 0zM421.95 464.42 a44.5 44.5 0 1 0 89 0 a44.5 44.5 0 1 0 -89 0z" fill="#488fdb"></path><path d="M461.07 420.25 A43.496 43.496 0 0 1 507.43 481.77M507.43 481.77 A88.992 88.992 0 0 0 461.07 420.25" fill="#2672c3" fill-rule="nonzero"></path><path d="M459.81 462.17 a8.9 8.9 0 1 0 17.8 0 a8.9 8.9 0 1 0 -17.8 0zM495.18 473.95 a7.12 7.12 0 1 0 14.24 0 a7.12 7.12 0 1 0 -14.24 0zM444 429.58 a5.34 5.34 0 1 0 10.68 0 a5.34 5.34 0 1 0 -10.68 0zM453.69 480.54 a3.56 3.56 0 1 0 7.12 0 a3.56 3.56 0 1 0 -7.12 0zM448.73 452.51 a2.22 2.22 0 1 0 4.44 0 a2.22 2.22 0 1 0 -4.44 0zM434.01 461.92 a4.45 4.45 0 1 0 8.9 0 a4.45 4.45 0 1 0 -8.9 0zM481.28 427.45 a3.11 3.11 0 1 0 6.22 0 a3.11 3.11 0 1 0 -6.22 0zM473.3 505.56 a2.22 2.22 0 1 0 4.44 0 a2.22 2.22 0 1 0 -4.44 0zM482.13 447.45 a7.12 7.12 0 1 0 14.24 0 a7.12 7.12 0 1 0 -14.24 0zM475.16 481.47 a4 4 0 1 0 8 0 a4 4 0 1 0 -8 0z" fill="#2672c3" fill-rule="nonzero"></path><path d="M337.58 344.18L337.58 346.04L345.88 346.04L345.88 344.18zM342.58 345.11 a3.3 3.3 0 1 0 6.6 0 a3.3 3.3 0 1 0 -6.6 0zM335.23 357.87L334.52 359.59L342.99 363.1L343.7 361.37zM340.05 362.24 a3.3 3.3 0 1 0 6.6 0 a3.3 3.3 0 1 0 -6.6 0zM327.82 369.61L326.5 370.93L337.85 382.27L339.16 380.95zM335.2 381.61 a3.3 3.3 0 1 0 6.6 0 a3.3 3.3 0 1 0 -6.6 0zM316.48 377.63L314.76 378.34L320.59 392.43L322.31 391.72zM318.15 392.07 a3.3 3.3 0 1 0 6.6 0 a3.3 3.3 0 1 0 -6.6 0zM302.93 380.69L301.07 380.69L301.07 389.38L302.93 389.38zM298.7 389.38 a3.3 3.3 0 1 0 6.6 0 a3.3 3.3 0 1 0 -6.6 0zM289.24 378.34L287.52 377.63L280.88 393.67L282.6 394.38zM278.44 394.02 a3.3 3.3 0 1 0 6.6 0 a3.3 3.3 0 1 0 -6.6 0zM277.5 370.93L276.18 369.61L267.38 378.41L268.7 379.73zM264.74 379.07 a3.3 3.3 0 1 0 6.6 0 a3.3 3.3 0 1 0 -6.6 0zM269.48 359.59L268.77 357.87L260.01 361.49L260.72 363.22zM257.07 362.35 a3.3 3.3 0 1 0 6.6 0 a3.3 3.3 0 1 0 -6.6 0zM266.42 346.04L266.42 344.18L252.74 344.18L252.74 346.04zM249.44 345.11 a3.3 3.3 0 1 0 6.6 0 a3.3 3.3 0 1 0 -6.6 0zM268.77 332.35L269.48 330.63L259.4 326.46L258.69 328.18zM255.74 327.32 a3.3 3.3 0 1 0 6.6 0 a3.3 3.3 0 1 0 -6.6 0zM276.18 320.61L277.5 319.29L266.37 308.16L265.05 309.48zM262.41 308.82 a3.3 3.3 0 1 0 6.6 0 a3.3 3.3 0 1 0 -6.6 0zM287.52 312.59L289.24 311.88L284.8 301.16L283.08 301.87zM280.64 301.52 a3.3 3.3 0 1 0 6.6 0 a3.3 3.3 0 1 0 -6.6 0zM301.07 309.52L302.93 309.52L302.93 292.57L301.07 292.57zM298.7 292.57 a3.3 3.3 0 1 0 6.6 0 a3.3 3.3 0 1 0 -6.6 0zM314.76 311.88L316.48 312.59L322.54 297.96L320.82 297.24zM318.38 297.6 a3.3 3.3 0 1 0 6.6 0 a3.3 3.3 0 1 0 -6.6 0zM326.5 319.29L327.82 320.61L336.7 311.72L335.38 310.41zM332.74 311.07 a3.3 3.3 0 1 0 6.6 0 a3.3 3.3 0 1 0 -6.6 0zM334.52 330.63L335.23 332.35L348.71 326.77L348 325.05zM345.06 325.91 a3.3 3.3 0 1 0 6.6 0 a3.3 3.3 0 1 0 -6.6 0zM266.4 345.11 a35.6 35.6 0 1 0 71.2 0 a35.6 35.6 0 1 0 -71.2 0z" fill="#488fdb"></path><path d="M335.35 332.65 A34.5968 34.5968 0 0 1 296.19 380.23M296.19 380.23 A71.1936 71.1936 0 0 0 335.35 332.65" fill="#2672c3" fill-rule="nonzero"></path><path d="M271.32 348.76 a7.12 7.12 0 1 0 14.24 0 a7.12 7.12 0 1 0 -14.24 0zM318.18 350.06 a7.12 7.12 0 1 0 14.24 0 a7.12 7.12 0 1 0 -14.24 0zM291.48 341.83 a4.63 4.63 0 1 0 9.26 0 a4.63 4.63 0 1 0 -9.26 0zM316.02 373.4 a2.49 2.49 0 1 0 4.98 0 a2.49 2.49 0 1 0 -4.98 0zM278.95 323.97 a7.12 7.12 0 1 0 14.24 0 a7.12 7.12 0 1 0 -14.24 0zM301.69 375.41 a3.56 3.56 0 1 0 7.12 0 a3.56 3.56 0 1 0 -7.12 0zM288.55 376.08 a2.85 2.85 0 1 0 5.7 0 a2.85 2.85 0 1 0 -5.7 0zM301.53 353.33 a1.78 1.78 0 1 0 3.56 0 a1.78 1.78 0 1 0 -3.56 0zM305.56 334.05 a2.49 2.49 0 1 0 4.98 0 a2.49 2.49 0 1 0 -4.98 0zM298.1 313.52 a3.92 3.92 0 1 0 7.84 0 a3.92 3.92 0 1 0 -7.84 0z" fill="#2672c3" fill-rule="nonzero"></path><path d="M822.09 67.47L822.09 69.33L836.1 69.33L836.1 67.47zM832.8 68.4 a3.3 3.3 0 1 0 6.6 0 a3.3 3.3 0 1 0 -6.6 0zM819.73 81.16L819.02 82.88L830.12 87.48L830.84 85.76zM827.18 86.62 a3.3 3.3 0 1 0 6.6 0 a3.3 3.3 0 1 0 -6.6 0zM812.32 92.9L811 94.22L815.86 99.08L817.18 97.76zM813.22 98.42 a3.3 3.3 0 1 0 6.6 0 a3.3 3.3 0 1 0 -6.6 0zM800.98 100.92L799.26 101.63L801.95 108.13L803.67 107.42zM799.51 107.77 a3.3 3.3 0 1 0 6.6 0 a3.3 3.3 0 1 0 -6.6 0zM787.43 103.99L785.57 103.99L785.57 118.48L787.43 118.48zM783.2 118.48 a3.3 3.3 0 1 0 6.6 0 a3.3 3.3 0 1 0 -6.6 0zM773.74 101.63L772.02 100.92L768.47 109.49L770.19 110.21zM766.03 109.85 a3.3 3.3 0 1 0 6.6 0 a3.3 3.3 0 1 0 -6.6 0zM762 94.22L760.68 92.9L757.54 96.04L758.86 97.36zM754.9 96.7 a3.3 3.3 0 1 0 6.6 0 a3.3 3.3 0 1 0 -6.6 0zM753.98 82.88L753.27 81.16L741.34 86.1L742.05 87.82zM738.4 86.96 a3.3 3.3 0 1 0 6.6 0 a3.3 3.3 0 1 0 -6.6 0zM750.92 69.33L750.92 67.47L736.32 67.47L736.32 69.33zM733.02 68.4 a3.3 3.3 0 1 0 6.6 0 a3.3 3.3 0 1 0 -6.6 0zM753.27 55.64L753.98 53.92L739.79 48.04L739.08 49.77zM736.13 48.91 a3.3 3.3 0 1 0 6.6 0 a3.3 3.3 0 1 0 -6.6 0zM760.68 43.9L762 42.58L756.94 37.52L755.62 38.84zM752.98 38.18 a3.3 3.3 0 1 0 6.6 0 a3.3 3.3 0 1 0 -6.6 0zM772.02 35.88L773.74 35.17L770.14 26.46L768.41 27.17zM765.97 26.81 a3.3 3.3 0 1 0 6.6 0 a3.3 3.3 0 1 0 -6.6 0zM785.57 32.82L787.43 32.82L787.43 21.61L785.57 21.61zM783.2 21.61 a3.3 3.3 0 1 0 6.6 0 a3.3 3.3 0 1 0 -6.6 0zM799.26 35.17L800.98 35.88L806.01 23.73L804.29 23.02zM801.85 23.38 a3.3 3.3 0 1 0 6.6 0 a3.3 3.3 0 1 0 -6.6 0zM811 42.58L812.32 43.9L822.24 33.98L820.92 32.67zM818.28 33.33 a3.3 3.3 0 1 0 6.6 0 a3.3 3.3 0 1 0 -6.6 0zM819.02 53.92L819.73 55.64L827.94 52.25L827.22 50.52zM824.28 51.39 a3.3 3.3 0 1 0 6.6 0 a3.3 3.3 0 1 0 -6.6 0zM750.9 68.4 a35.6 35.6 0 1 0 71.2 0 a35.6 35.6 0 1 0 -71.2 0z" fill="#488fdb"></path><path d="M800.65 35.74 A34.5968 34.5968 0 0 1 807.77 96.95M807.77 96.95 A71.1936 71.1936 0 0 0 800.65 35.74" fill="#2672c3" fill-rule="nonzero"></path><path d="M803.7 70.83 a7.12 7.12 0 1 0 14.24 0 a7.12 7.12 0 1 0 -14.24 0zM762.65 82.01 a7.12 7.12 0 1 0 14.24 0 a7.12 7.12 0 1 0 -14.24 0zM759.8 57.25 a7.12 7.12 0 1 0 14.24 0 a7.12 7.12 0 1 0 -14.24 0zM782.56 74.26 a6.76 6.76 0 1 0 13.52 0 a6.76 6.76 0 1 0 -13.52 0zM783.92 97.43 a6.05 6.05 0 1 0 12.1 0 a6.05 6.05 0 1 0 -12.1 0zM810.95 90.55 a1.42 1.42 0 1 0 2.84 0 a1.42 1.42 0 1 0 -2.84 0zM782.96 42.36 a7.12 7.12 0 1 0 14.24 0 a7.12 7.12 0 1 0 -14.24 0zM772.39 36.81 a1.42 1.42 0 1 0 2.84 0 a1.42 1.42 0 1 0 -2.84 0zM767.61 97.75 a1.42 1.42 0 1 0 2.84 0 a1.42 1.42 0 1 0 -2.84 0zM804.86 54.61 a2.14 2.14 0 1 0 4.28 0 a2.14 2.14 0 1 0 -4.28 0z" fill="#2672c3" fill-rule="nonzero"></path><path d="M276.36 117.92L276.36 121.18L287.57 121.18L287.57 117.92zM281.79 119.55 a5.78 5.78 0 1 0 11.56 0 a5.78 5.78 0 1 0 -11.56 0zM272.24 141.87L270.99 144.89L284.44 150.46L285.69 147.45zM279.29 148.95 a5.78 5.78 0 1 0 11.56 0 a5.78 5.78 0 1 0 -11.56 0zM259.27 162.43L256.97 164.74L270.33 178.1L272.64 175.79zM265.7 176.95 a5.78 5.78 0 1 0 11.56 0 a5.78 5.78 0 1 0 -11.56 0zM239.42 176.46L236.41 177.71L243.71 195.33L246.72 194.08zM239.43 194.7 a5.78 5.78 0 1 0 11.56 0 a5.78 5.78 0 1 0 -11.56 0zM215.72 181.82L212.45 181.82L212.45 189.53L215.72 189.53zM208.3 189.53 a5.78 5.78 0 1 0 11.56 0 a5.78 5.78 0 1 0 -11.56 0zM191.76 177.71L188.75 176.46L180.7 195.9L183.71 197.15zM176.42 196.52 a5.78 5.78 0 1 0 11.56 0 a5.78 5.78 0 1 0 -11.56 0zM171.2 164.74L168.9 162.43L158.91 172.41L161.22 174.72zM154.29 173.57 a5.78 5.78 0 1 0 11.56 0 a5.78 5.78 0 1 0 -11.56 0zM157.18 144.89L155.93 141.87L129.79 152.7L131.04 155.71zM124.64 154.21 a5.78 5.78 0 1 0 11.56 0 a5.78 5.78 0 1 0 -11.56 0zM151.81 121.18L151.81 117.92L123.05 117.92L123.05 121.18zM117.27 119.55 a5.78 5.78 0 1 0 11.56 0 a5.78 5.78 0 1 0 -11.56 0zM155.93 97.23L157.18 94.21L141.38 87.67L140.13 90.68zM134.97 89.18 a5.78 5.78 0 1 0 11.56 0 a5.78 5.78 0 1 0 -11.56 0zM168.9 76.67L171.2 74.36L155 58.16L152.7 60.47zM148.07 59.32 a5.78 5.78 0 1 0 11.56 0 a5.78 5.78 0 1 0 -11.56 0zM188.75 62.64L191.76 61.39L187.01 49.93L184 51.18zM179.72 50.55 a5.78 5.78 0 1 0 11.56 0 a5.78 5.78 0 1 0 -11.56 0zM212.45 57.28L215.72 57.28L215.72 46.35L212.45 46.35zM208.3 46.35 a5.78 5.78 0 1 0 11.56 0 a5.78 5.78 0 1 0 -11.56 0zM236.41 61.39L239.42 62.64L243.62 52.52L240.6 51.27zM236.33 51.89 a5.78 5.78 0 1 0 11.56 0 a5.78 5.78 0 1 0 -11.56 0zM256.97 74.36L259.27 76.67L278.43 57.51L276.13 55.2zM271.5 56.35 a5.78 5.78 0 1 0 11.56 0 a5.78 5.78 0 1 0 -11.56 0zM270.99 94.21L272.24 97.23L280.15 93.95L278.9 90.94zM273.75 92.44 a5.78 5.78 0 1 0 11.56 0 a5.78 5.78 0 1 0 -11.56 0zM151.79 119.55 a62.29 62.29 0 1 0 124.58 0 a62.29 62.29 0 1 0 -124.58 0z" fill="#488fdb"></path><path d="M263.37 157.65 A61.294399999999996 61.294399999999996 0 0 1 156.49 143.3M156.49 143.3 A124.58879999999999 124.58879999999999 0 0 0 263.37 157.65" fill="#2672c3" fill-rule="nonzero"></path><path d="M210.05 82.49 a12.46 12.46 0 1 0 24.92 0 a12.46 12.46 0 1 0 -24.92 0zM193.33 113.33 a10.59 10.59 0 1 0 21.18 0 a10.59 10.59 0 1 0 -21.18 0zM263.91 91.73 a2.49 2.49 0 1 0 4.98 0 a2.49 2.49 0 1 0 -4.98 0zM165.39 153.21 a12.46 12.46 0 1 0 24.92 0 a12.46 12.46 0 1 0 -24.92 0zM252.21 138.75 a9.97 9.97 0 1 0 19.94 0 a9.97 9.97 0 1 0 -19.94 0zM175.87 115.89 a2.49 2.49 0 1 0 4.98 0 a2.49 2.49 0 1 0 -4.98 0zM238.28 112.02 a8.1 8.1 0 1 0 16.2 0 a8.1 8.1 0 1 0 -16.2 0zM164.42 85.92 a8.72 8.72 0 1 0 17.44 0 a8.72 8.72 0 1 0 -17.44 0zM232.32 160.65 a8.1 8.1 0 1 0 16.2 0 a8.1 8.1 0 1 0 -16.2 0zM208.39 139.78 a4.36 4.36 0 1 0 8.72 0 a4.36 4.36 0 1 0 -8.72 0z" fill="#2672c3" fill-rule="nonzero"></path><path d="M1375.85 89.51L1375.85 91.37L1390.56 91.37L1390.56 89.51zM1387.26 90.44 a3.3 3.3 0 1 0 6.6 0 a3.3 3.3 0 1 0 -6.6 0zM1373.5 103.2L1372.78 104.92L1387.94 111.2L1388.65 109.47zM1384.99 110.33 a3.3 3.3 0 1 0 6.6 0 a3.3 3.3 0 1 0 -6.6 0zM1366.09 114.94L1364.77 116.26L1370.89 122.39L1372.21 121.07zM1368.25 121.73 a3.3 3.3 0 1 0 6.6 0 a3.3 3.3 0 1 0 -6.6 0zM1354.74 122.96L1353.02 123.67L1355.53 129.73L1357.25 129.02zM1353.09 129.38 a3.3 3.3 0 1 0 6.6 0 a3.3 3.3 0 1 0 -6.6 0zM1341.2 126.03L1339.33 126.03L1339.33 134.64L1341.2 134.64zM1336.97 134.64 a3.3 3.3 0 1 0 6.6 0 a3.3 3.3 0 1 0 -6.6 0zM1327.51 123.67L1325.79 122.96L1321.81 132.57L1323.53 133.28zM1319.37 132.93 a3.3 3.3 0 1 0 6.6 0 a3.3 3.3 0 1 0 -6.6 0zM1315.76 116.26L1314.44 114.94L1305.53 123.86L1306.85 125.18zM1302.89 124.52 a3.3 3.3 0 1 0 6.6 0 a3.3 3.3 0 1 0 -6.6 0zM1307.75 104.92L1307.03 103.2L1296.6 107.52L1297.32 109.24zM1293.66 108.38 a3.3 3.3 0 1 0 6.6 0 a3.3 3.3 0 1 0 -6.6 0zM1304.68 91.37L1304.68 89.51L1299.34 89.51L1299.34 91.37zM1296.04 90.44 a3.3 3.3 0 1 0 6.6 0 a3.3 3.3 0 1 0 -6.6 0zM1307.03 77.68L1307.75 75.96L1295.62 70.94L1294.9 72.66zM1291.96 71.8 a3.3 3.3 0 1 0 6.6 0 a3.3 3.3 0 1 0 -6.6 0zM1314.44 65.94L1315.76 64.62L1303.8 52.66L1302.49 53.98zM1299.85 53.32 a3.3 3.3 0 1 0 6.6 0 a3.3 3.3 0 1 0 -6.6 0zM1325.79 57.92L1327.51 57.21L1325.36 52.03L1323.64 52.74zM1321.2 52.38 a3.3 3.3 0 1 0 6.6 0 a3.3 3.3 0 1 0 -6.6 0zM1339.33 54.86L1341.2 54.86L1341.2 48.77L1339.33 48.77zM1336.97 48.77 a3.3 3.3 0 1 0 6.6 0 a3.3 3.3 0 1 0 -6.6 0zM1353.02 57.21L1354.74 57.92L1356.84 52.86L1355.12 52.15zM1352.68 52.5 a3.3 3.3 0 1 0 6.6 0 a3.3 3.3 0 1 0 -6.6 0zM1364.77 64.62L1366.09 65.94L1370.13 61.89L1368.81 60.58zM1366.17 61.23 a3.3 3.3 0 1 0 6.6 0 a3.3 3.3 0 1 0 -6.6 0zM1372.78 75.96L1373.5 77.68L1386.87 72.15L1386.15 70.43zM1383.21 71.29 a3.3 3.3 0 1 0 6.6 0 a3.3 3.3 0 1 0 -6.6 0zM1304.67 90.44 a35.6 35.6 0 1 0 71.2 0 a35.6 35.6 0 1 0 -71.2 0z" fill="#488fdb"></path><path d="M1305.22 96.68 A34.5968 34.5968 0 0 1 1352.31 56.94M1352.31 56.94 A71.1936 71.1936 0 0 0 1305.22 96.68" fill="#2672c3" fill-rule="nonzero"></path><path d="M1363.29 86.82 a6.05 6.05 0 1 0 12.1 0 a6.05 6.05 0 1 0 -12.1 0zM1350.71 75.71 a4.63 4.63 0 1 0 9.26 0 a4.63 4.63 0 1 0 -9.26 0zM1329.27 78.87 a7.12 7.12 0 1 0 14.24 0 a7.12 7.12 0 1 0 -14.24 0zM1319.47 117.39 a3.56 3.56 0 1 0 7.12 0 a3.56 3.56 0 1 0 -7.12 0zM1346.16 111.09 a7.12 7.12 0 1 0 14.24 0 a7.12 7.12 0 1 0 -14.24 0zM1306.18 81.37 a6.76 6.76 0 1 0 13.52 0 a6.76 6.76 0 1 0 -13.52 0zM1347.39 64.11 a1.42 1.42 0 1 0 2.84 0 a1.42 1.42 0 1 0 -2.84 0zM1323.07 62.96 a3.92 3.92 0 1 0 7.84 0 a3.92 3.92 0 1 0 -7.84 0zM1321.16 94.73 a4.63 4.63 0 1 0 9.26 0 a4.63 4.63 0 1 0 -9.26 0zM1351.74 91.77 a2.49 2.49 0 1 0 4.98 0 a2.49 2.49 0 1 0 -4.98 0z" fill="#2672c3" fill-rule="nonzero"></path></g><defs><mask id="SvgjsMask1000"><rect width="1440" height="560" fill="#ffffff"></rect></mask></defs></svg>