<svg xmlns="http://www.w3.org/2000/svg" version="1.1" xmlns:xlink="http://www.w3.org/1999/xlink" xmlns:svgjs="http://svgjs.com/svgjs" width="1440" height="560" preserveAspectRatio="none" viewBox="0 0 1440 560"><g mask="url(&quot;#SvgjsMask1002&quot;)" fill="none"><path d="M313.63 244.94L313.63 248.67L346.09 248.67L346.09 244.94zM339.49 246.8 a6.6 6.6 0 1 0 13.2 0 a6.6 6.6 0 1 0 -13.2 0zM308.93 272.32L307.5 275.76L329.61 284.92L331.04 281.48zM323.72 283.2 a6.6 6.6 0 1 0 13.2 0 a6.6 6.6 0 1 0 -13.2 0zM294.1 295.81L291.47 298.45L301.48 308.46L304.12 305.82zM296.2 307.14 a6.6 6.6 0 1 0 13.2 0 a6.6 6.6 0 1 0 -13.2 0zM271.42 311.84L267.98 313.27L279.64 341.42L283.08 339.99zM274.76 340.71 a6.6 6.6 0 1 0 13.2 0 a6.6 6.6 0 1 0 -13.2 0zM244.33 317.97L240.6 317.97L240.6 329.49L244.33 329.49zM235.86 329.49 a6.6 6.6 0 1 0 13.2 0 a6.6 6.6 0 1 0 -13.2 0zM216.95 313.27L213.5 311.84L207.36 326.69L210.8 328.12zM202.48 327.4 a6.6 6.6 0 1 0 13.2 0 a6.6 6.6 0 1 0 -13.2 0zM193.46 298.45L190.82 295.81L172.79 313.84L175.42 316.48zM167.51 315.16 a6.6 6.6 0 1 0 13.2 0 a6.6 6.6 0 1 0 -13.2 0zM177.42 275.76L176 272.32L149.44 283.32L150.86 286.76zM143.55 285.04 a6.6 6.6 0 1 0 13.2 0 a6.6 6.6 0 1 0 -13.2 0zM171.29 248.67L171.29 244.94L137.68 244.94L137.68 248.67zM131.08 246.8 a6.6 6.6 0 1 0 13.2 0 a6.6 6.6 0 1 0 -13.2 0zM176 221.29L177.42 217.85L159.95 210.61L158.53 214.05zM152.64 212.33 a6.6 6.6 0 1 0 13.2 0 a6.6 6.6 0 1 0 -13.2 0zM190.82 197.8L193.46 195.16L172.9 174.61L170.26 177.24zM164.98 175.92 a6.6 6.6 0 1 0 13.2 0 a6.6 6.6 0 1 0 -13.2 0zM213.5 181.77L216.95 180.34L212.82 170.37L209.38 171.8zM204.5 171.08 a6.6 6.6 0 1 0 13.2 0 a6.6 6.6 0 1 0 -13.2 0zM240.6 175.64L244.33 175.64L244.33 141.57L240.6 141.57zM235.86 141.57 a6.6 6.6 0 1 0 13.2 0 a6.6 6.6 0 1 0 -13.2 0zM267.98 180.34L271.42 181.77L278.66 164.29L275.22 162.86zM270.34 163.57 a6.6 6.6 0 1 0 13.2 0 a6.6 6.6 0 1 0 -13.2 0zM291.47 195.16L294.1 197.8L314.01 177.89L311.37 175.26zM306.09 176.58 a6.6 6.6 0 1 0 13.2 0 a6.6 6.6 0 1 0 -13.2 0zM307.5 217.85L308.93 221.29L331.1 212.11L329.67 208.66zM323.79 210.38 a6.6 6.6 0 1 0 13.2 0 a6.6 6.6 0 1 0 -13.2 0zM171.27 246.8 a71.19 71.19 0 1 0 142.38 0 a71.19 71.19 0 1 0 -142.38 0z" fill="rgba(203, 208, 213, 1)"></path><path d="M312.6 234.61 A70.1936 70.1936 0 0 1 218.09 313.7M218.09 313.7 A142.3872 142.3872 0 0 0 312.6 234.61" fill="#9da6b0" fill-rule="nonzero"></path><path d="M172.57 257.47 a4.27 4.27 0 1 0 8.54 0 a4.27 4.27 0 1 0 -8.54 0zM267.22 293.96 a11.39 11.39 0 1 0 22.78 0 a11.39 11.39 0 1 0 -22.78 0zM255.73 257.63 a12.1 12.1 0 1 0 24.2 0 a12.1 12.1 0 1 0 -24.2 0zM201.53 302.97 a2.85 2.85 0 1 0 5.7 0 a2.85 2.85 0 1 0 -5.7 0zM207.98 190.25 a8.54 8.54 0 1 0 17.08 0 a8.54 8.54 0 1 0 -17.08 0zM228.06 249.03 a7.12 7.12 0 1 0 14.24 0 a7.12 7.12 0 1 0 -14.24 0zM268.22 222.08 a10.68 10.68 0 1 0 21.36 0 a10.68 10.68 0 1 0 -21.36 0zM185.47 215.64 a9.97 9.97 0 1 0 19.94 0 a9.97 9.97 0 1 0 -19.94 0zM246.7 306.31 a4.27 4.27 0 1 0 8.54 0 a4.27 4.27 0 1 0 -8.54 0zM294.33 261.07 a6.41 6.41 0 1 0 12.82 0 a6.41 6.41 0 1 0 -12.82 0z" fill="#9da6b0" fill-rule="nonzero"></path><path d="M848.62 439.25L848.62 442.98L869.72 442.98L869.72 439.25zM863.12 441.12 a6.6 6.6 0 1 0 13.2 0 a6.6 6.6 0 1 0 -13.2 0zM843.91 466.63L842.49 470.07L865.42 479.57L866.84 476.13zM859.53 477.85 a6.6 6.6 0 1 0 13.2 0 a6.6 6.6 0 1 0 -13.2 0zM829.09 490.12L826.45 492.76L834.28 500.59L836.92 497.95zM829 499.27 a6.6 6.6 0 1 0 13.2 0 a6.6 6.6 0 1 0 -13.2 0zM806.4 506.16L802.96 507.58L810.2 525.05L813.64 523.63zM805.32 524.34 a6.6 6.6 0 1 0 13.2 0 a6.6 6.6 0 1 0 -13.2 0zM779.31 512.29L775.58 512.29L775.58 536.01L779.31 536.01zM770.85 536.01 a6.6 6.6 0 1 0 13.2 0 a6.6 6.6 0 1 0 -13.2 0zM751.93 507.58L748.49 506.16L740.19 526.19L743.63 527.62zM735.31 526.91 a6.6 6.6 0 1 0 13.2 0 a6.6 6.6 0 1 0 -13.2 0zM728.44 492.76L725.81 490.12L711.81 504.12L714.45 506.75zM706.53 505.43 a6.6 6.6 0 1 0 13.2 0 a6.6 6.6 0 1 0 -13.2 0zM712.41 470.07L710.98 466.63L685.06 477.37L686.49 480.81zM679.17 479.09 a6.6 6.6 0 1 0 13.2 0 a6.6 6.6 0 1 0 -13.2 0zM706.28 442.98L706.28 439.25L672.98 439.25L672.98 442.98zM666.38 441.12 a6.6 6.6 0 1 0 13.2 0 a6.6 6.6 0 1 0 -13.2 0zM710.98 415.6L712.41 412.16L680.5 398.94L679.07 402.39zM673.19 400.66 a6.6 6.6 0 1 0 13.2 0 a6.6 6.6 0 1 0 -13.2 0zM725.81 392.11L728.44 389.47L713.06 374.1L710.43 376.73zM705.14 375.41 a6.6 6.6 0 1 0 13.2 0 a6.6 6.6 0 1 0 -13.2 0zM748.49 376.08L751.93 374.65L746.95 362.61L743.5 364.04zM738.63 363.33 a6.6 6.6 0 1 0 13.2 0 a6.6 6.6 0 1 0 -13.2 0zM775.58 369.95L779.31 369.95L779.31 355.97L775.58 355.97zM770.85 355.97 a6.6 6.6 0 1 0 13.2 0 a6.6 6.6 0 1 0 -13.2 0zM802.96 374.65L806.4 376.08L810.17 366.99L806.73 365.56zM801.85 366.27 a6.6 6.6 0 1 0 13.2 0 a6.6 6.6 0 1 0 -13.2 0zM826.45 389.47L829.09 392.11L841.61 379.59L838.98 376.95zM833.69 378.27 a6.6 6.6 0 1 0 13.2 0 a6.6 6.6 0 1 0 -13.2 0zM842.49 412.16L843.91 415.6L865.38 406.71L863.96 403.27zM858.07 404.99 a6.6 6.6 0 1 0 13.2 0 a6.6 6.6 0 1 0 -13.2 0zM706.26 441.12 a71.19 71.19 0 1 0 142.38 0 a71.19 71.19 0 1 0 -142.38 0z" fill="rgba(203, 208, 213, 1)"></path><path d="M801.39 374.07 A70.1936 70.1936 0 0 1 823.66 495.28M823.66 495.28 A142.3872 142.3872 0 0 0 801.39 374.07" fill="#9da6b0" fill-rule="nonzero"></path><path d="M747.41 470.11 a14.24 14.24 0 1 0 28.48 0 a14.24 14.24 0 1 0 -28.48 0zM767.98 395.69 a14.24 14.24 0 1 0 28.48 0 a14.24 14.24 0 1 0 -28.48 0zM806.82 412.38 a9.26 9.26 0 1 0 18.52 0 a9.26 9.26 0 1 0 -18.52 0zM734.02 388.02 a4.98 4.98 0 1 0 9.96 0 a4.98 4.98 0 1 0 -9.96 0zM782.29 445.08 a14.24 14.24 0 1 0 28.48 0 a14.24 14.24 0 1 0 -28.48 0zM778.56 498.57 a12.1 12.1 0 1 0 24.2 0 a12.1 12.1 0 1 0 -24.2 0zM708.37 424.63 a4.27 4.27 0 1 0 8.54 0 a4.27 4.27 0 1 0 -8.54 0zM733.26 412.31 a4.98 4.98 0 1 0 9.96 0 a4.98 4.98 0 1 0 -9.96 0zM732.06 493.86 a3.56 3.56 0 1 0 7.12 0 a3.56 3.56 0 1 0 -7.12 0zM740.52 436.58 a6.41 6.41 0 1 0 12.82 0 a6.41 6.41 0 1 0 -12.82 0z" fill="#9da6b0" fill-rule="nonzero"></path><path d="M1241.35 401.97L1241.35 405.7L1264.23 405.7L1264.23 401.97zM1257.63 403.84 a6.6 6.6 0 1 0 13.2 0 a6.6 6.6 0 1 0 -13.2 0zM1236.65 429.35L1235.22 432.79L1266.65 445.81L1268.08 442.37zM1260.76 444.09 a6.6 6.6 0 1 0 13.2 0 a6.6 6.6 0 1 0 -13.2 0zM1221.82 452.84L1219.19 455.48L1228.08 464.37L1230.71 461.73zM1222.79 463.05 a6.6 6.6 0 1 0 13.2 0 a6.6 6.6 0 1 0 -13.2 0zM1199.14 468.87L1195.69 470.3L1202.13 485.83L1205.57 484.4zM1197.25 485.12 a6.6 6.6 0 1 0 13.2 0 a6.6 6.6 0 1 0 -13.2 0zM1172.04 475L1168.32 475L1168.32 508.88L1172.04 508.88zM1163.58 508.88 a6.6 6.6 0 1 0 13.2 0 a6.6 6.6 0 1 0 -13.2 0zM1144.67 470.3L1141.22 468.87L1135.07 483.72L1138.52 485.15zM1130.2 484.43 a6.6 6.6 0 1 0 13.2 0 a6.6 6.6 0 1 0 -13.2 0zM1121.17 455.48L1118.54 452.84L1109.67 461.71L1112.31 464.34zM1104.39 463.03 a6.6 6.6 0 1 0 13.2 0 a6.6 6.6 0 1 0 -13.2 0zM1105.14 432.79L1103.72 429.35L1087.25 436.17L1088.68 439.61zM1081.37 437.89 a6.6 6.6 0 1 0 13.2 0 a6.6 6.6 0 1 0 -13.2 0zM1099.01 405.7L1099.01 401.97L1083.26 401.97L1083.26 405.7zM1076.66 403.84 a6.6 6.6 0 1 0 13.2 0 a6.6 6.6 0 1 0 -13.2 0zM1103.72 378.32L1105.14 374.88L1088.63 368.04L1087.21 371.48zM1081.32 369.76 a6.6 6.6 0 1 0 13.2 0 a6.6 6.6 0 1 0 -13.2 0zM1118.54 354.83L1121.17 352.19L1110.17 341.19L1107.54 343.83zM1102.25 342.51 a6.6 6.6 0 1 0 13.2 0 a6.6 6.6 0 1 0 -13.2 0zM1141.22 338.8L1144.67 337.37L1139.21 324.21L1135.77 325.63zM1130.89 324.92 a6.6 6.6 0 1 0 13.2 0 a6.6 6.6 0 1 0 -13.2 0zM1168.32 332.67L1172.04 332.67L1172.04 299.8L1168.32 299.8zM1163.58 299.8 a6.6 6.6 0 1 0 13.2 0 a6.6 6.6 0 1 0 -13.2 0zM1195.69 337.37L1199.14 338.8L1207.31 319.06L1203.87 317.64zM1198.99 318.35 a6.6 6.6 0 1 0 13.2 0 a6.6 6.6 0 1 0 -13.2 0zM1219.19 352.19L1221.82 354.83L1232.78 343.88L1230.14 341.24zM1224.86 342.56 a6.6 6.6 0 1 0 13.2 0 a6.6 6.6 0 1 0 -13.2 0zM1235.22 374.88L1236.65 378.32L1262.27 367.71L1260.85 364.26zM1254.96 365.98 a6.6 6.6 0 1 0 13.2 0 a6.6 6.6 0 1 0 -13.2 0zM1098.99 403.84 a71.19 71.19 0 1 0 142.38 0 a71.19 71.19 0 1 0 -142.38 0z" fill="rgba(203, 208, 213, 1)"></path><path d="M1107.25 370.55 A70.1936 70.1936 0 0 1 1230.39 365.85M1230.39 365.85 A142.3872 142.3872 0 0 0 1107.25 370.55" fill="#9da6b0" fill-rule="nonzero"></path><path d="M1176.98 340.65 a6.41 6.41 0 1 0 12.82 0 a6.41 6.41 0 1 0 -12.82 0zM1173.33 406.98 a14.24 14.24 0 1 0 28.48 0 a14.24 14.24 0 1 0 -28.48 0zM1116.87 400.48 a14.24 14.24 0 1 0 28.48 0 a14.24 14.24 0 1 0 -28.48 0zM1229.13 379.54 a3.56 3.56 0 1 0 7.12 0 a3.56 3.56 0 1 0 -7.12 0zM1196 374.96 a6.41 6.41 0 1 0 12.82 0 a6.41 6.41 0 1 0 -12.82 0zM1136.4 365.79 a8.54 8.54 0 1 0 17.08 0 a8.54 8.54 0 1 0 -17.08 0zM1154.59 425.38 a4.98 4.98 0 1 0 9.96 0 a4.98 4.98 0 1 0 -9.96 0zM1182.88 448.25 a13.53 13.53 0 1 0 27.06 0 a13.53 13.53 0 1 0 -27.06 0zM1126.84 453.93 a12.1 12.1 0 1 0 24.2 0 a12.1 12.1 0 1 0 -24.2 0zM1172.45 366.81 a4.98 4.98 0 1 0 9.96 0 a4.98 4.98 0 1 0 -9.96 0z" fill="#9da6b0" fill-rule="nonzero"></path><path d="M902.72 101.18L902.72 104.45L925.85 104.45L925.85 101.18zM920.07 102.81 a5.78 5.78 0 1 0 11.56 0 a5.78 5.78 0 1 0 -11.56 0zM898.6 125.14L897.35 128.15L909.08 133.01L910.33 130zM903.92 131.5 a5.78 5.78 0 1 0 11.56 0 a5.78 5.78 0 1 0 -11.56 0zM885.63 145.7L883.33 148L903.78 168.46L906.09 166.15zM899.16 167.31 a5.78 5.78 0 1 0 11.56 0 a5.78 5.78 0 1 0 -11.56 0zM865.78 159.72L862.77 160.97L873.71 187.39L876.73 186.15zM869.44 186.77 a5.78 5.78 0 1 0 11.56 0 a5.78 5.78 0 1 0 -11.56 0zM842.08 165.09L838.81 165.09L838.81 179.43L842.08 179.43zM834.67 179.43 a5.78 5.78 0 1 0 11.56 0 a5.78 5.78 0 1 0 -11.56 0zM818.12 160.97L815.11 159.72L805.33 183.33L808.34 184.58zM801.06 183.95 a5.78 5.78 0 1 0 11.56 0 a5.78 5.78 0 1 0 -11.56 0zM797.56 148L795.26 145.7L779.48 161.48L781.78 163.78zM774.85 162.63 a5.78 5.78 0 1 0 11.56 0 a5.78 5.78 0 1 0 -11.56 0zM783.54 128.15L782.29 125.14L773.46 128.8L774.7 131.81zM768.3 130.3 a5.78 5.78 0 1 0 11.56 0 a5.78 5.78 0 1 0 -11.56 0zM778.17 104.45L778.17 101.18L766.49 101.18L766.49 104.45zM760.71 102.81 a5.78 5.78 0 1 0 11.56 0 a5.78 5.78 0 1 0 -11.56 0zM782.29 80.49L783.54 77.48L769.48 71.66L768.24 74.67zM763.08 73.16 a5.78 5.78 0 1 0 11.56 0 a5.78 5.78 0 1 0 -11.56 0zM795.26 59.93L797.56 57.63L792.08 52.14L789.77 54.45zM785.14 53.29 a5.78 5.78 0 1 0 11.56 0 a5.78 5.78 0 1 0 -11.56 0zM815.11 45.91L818.12 44.66L813.11 32.56L810.1 33.81zM805.83 33.19 a5.78 5.78 0 1 0 11.56 0 a5.78 5.78 0 1 0 -11.56 0zM838.81 40.54L842.08 40.54L842.08 23.46L838.81 23.46zM834.67 23.46 a5.78 5.78 0 1 0 11.56 0 a5.78 5.78 0 1 0 -11.56 0zM862.77 44.66L865.78 45.91L874.49 24.88L871.48 23.63zM867.21 24.25 a5.78 5.78 0 1 0 11.56 0 a5.78 5.78 0 1 0 -11.56 0zM883.33 57.63L885.63 59.93L893.01 52.55L890.71 50.25zM886.08 51.4 a5.78 5.78 0 1 0 11.56 0 a5.78 5.78 0 1 0 -11.56 0zM897.35 77.48L898.6 80.49L918.91 72.08L917.66 69.07zM912.51 70.57 a5.78 5.78 0 1 0 11.56 0 a5.78 5.78 0 1 0 -11.56 0zM778.16 102.81 a62.29 62.29 0 1 0 124.58 0 a62.29 62.29 0 1 0 -124.58 0z" fill="rgba(203, 208, 213, 1)"></path><path d="M902.6 106.92 A61.294399999999996 61.294399999999996 0 0 1 805.92 154.67M805.92 154.67 A124.58879999999999 124.58879999999999 0 0 0 902.6 106.92" fill="#9da6b0" fill-rule="nonzero"></path><path d="M815.84 139.25 a12.46 12.46 0 1 0 24.92 0 a12.46 12.46 0 1 0 -24.92 0zM867.92 76.07 a12.46 12.46 0 1 0 24.92 0 a12.46 12.46 0 1 0 -24.92 0zM856.17 154.84 a5.61 5.61 0 1 0 11.22 0 a5.61 5.61 0 1 0 -11.22 0zM874.24 117.78 a12.46 12.46 0 1 0 24.92 0 a12.46 12.46 0 1 0 -24.92 0zM795.84 89.43 a12.46 12.46 0 1 0 24.92 0 a12.46 12.46 0 1 0 -24.92 0zM833.1 60.47 a12.46 12.46 0 1 0 24.92 0 a12.46 12.46 0 1 0 -24.92 0zM837.97 112 a6.85 6.85 0 1 0 13.7 0 a6.85 6.85 0 1 0 -13.7 0zM861.28 100.34 a3.11 3.11 0 1 0 6.22 0 a3.11 3.11 0 1 0 -6.22 0zM778.98 111.43 a3.74 3.74 0 1 0 7.48 0 a3.74 3.74 0 1 0 -7.48 0zM858.06 127.82 a2.49 2.49 0 1 0 4.98 0 a2.49 2.49 0 1 0 -4.98 0z" fill="#9da6b0" fill-rule="nonzero"></path><path d="M508.8 70.78L508.8 72.65L515.06 72.65L515.06 70.78zM511.76 71.71 a3.3 3.3 0 1 0 6.6 0 a3.3 3.3 0 1 0 -6.6 0zM506.45 84.47L505.74 86.19L514.12 89.66L514.83 87.94zM511.17 88.8 a3.3 3.3 0 1 0 6.6 0 a3.3 3.3 0 1 0 -6.6 0zM499.04 96.22L497.72 97.54L501.5 101.31L502.81 99.99zM498.85 100.65 a3.3 3.3 0 1 0 6.6 0 a3.3 3.3 0 1 0 -6.6 0zM487.7 104.23L485.97 104.95L491.82 119.06L493.54 118.34zM489.38 118.7 a3.3 3.3 0 1 0 6.6 0 a3.3 3.3 0 1 0 -6.6 0zM474.15 107.3L472.28 107.3L472.28 113.4L474.15 113.4zM469.92 113.4 a3.3 3.3 0 1 0 6.6 0 a3.3 3.3 0 1 0 -6.6 0zM460.46 104.95L458.74 104.23L453.19 117.64L454.91 118.35zM450.75 118 a3.3 3.3 0 1 0 6.6 0 a3.3 3.3 0 1 0 -6.6 0zM448.71 97.54L447.4 96.22L436.39 107.23L437.7 108.55zM433.74 107.89 a3.3 3.3 0 1 0 6.6 0 a3.3 3.3 0 1 0 -6.6 0zM440.7 86.19L439.98 84.47L424.85 90.74L425.56 92.46zM421.91 91.6 a3.3 3.3 0 1 0 6.6 0 a3.3 3.3 0 1 0 -6.6 0zM437.63 72.65L437.63 70.78L430.62 70.78L430.62 72.65zM427.32 71.71 a3.3 3.3 0 1 0 6.6 0 a3.3 3.3 0 1 0 -6.6 0zM439.98 58.96L440.7 57.24L436.23 55.38L435.51 57.11zM432.57 56.25 a3.3 3.3 0 1 0 6.6 0 a3.3 3.3 0 1 0 -6.6 0zM447.4 47.21L448.71 45.89L444.59 41.77L443.27 43.09zM440.63 42.43 a3.3 3.3 0 1 0 6.6 0 a3.3 3.3 0 1 0 -6.6 0zM458.74 39.2L460.46 38.48L453.84 22.5L452.12 23.21zM449.68 22.86 a3.3 3.3 0 1 0 6.6 0 a3.3 3.3 0 1 0 -6.6 0zM472.28 36.13L474.15 36.13L474.15 31.59L472.28 31.59zM469.92 31.59 a3.3 3.3 0 1 0 6.6 0 a3.3 3.3 0 1 0 -6.6 0zM485.97 38.48L487.7 39.2L492.4 27.84L490.68 27.13zM488.24 27.48 a3.3 3.3 0 1 0 6.6 0 a3.3 3.3 0 1 0 -6.6 0zM497.72 45.89L499.04 47.21L503.31 42.94L501.99 41.62zM499.35 42.28 a3.3 3.3 0 1 0 6.6 0 a3.3 3.3 0 1 0 -6.6 0zM505.74 57.24L506.45 58.96L521.18 52.86L520.46 51.14zM517.52 52 a3.3 3.3 0 1 0 6.6 0 a3.3 3.3 0 1 0 -6.6 0zM437.62 71.71 a35.6 35.6 0 1 0 71.2 0 a35.6 35.6 0 1 0 -71.2 0z" fill="rgba(203, 208, 213, 1)"></path><path d="M458.6 104.17 A34.5968 34.5968 0 0 1 452.36 42.87M452.36 42.87 A71.1936 71.1936 0 0 0 458.6 104.17" fill="#9da6b0" fill-rule="nonzero"></path><path d="M449.73 49.09 a7.12 7.12 0 1 0 14.24 0 a7.12 7.12 0 1 0 -14.24 0zM476.69 67.84 a7.12 7.12 0 1 0 14.24 0 a7.12 7.12 0 1 0 -14.24 0zM467.33 80.51 a3.56 3.56 0 1 0 7.12 0 a3.56 3.56 0 1 0 -7.12 0zM459.98 66.38 a4.63 4.63 0 1 0 9.26 0 a4.63 4.63 0 1 0 -9.26 0zM499.73 79.27 a3.92 3.92 0 1 0 7.84 0 a3.92 3.92 0 1 0 -7.84 0zM475.87 101.24 a4.98 4.98 0 1 0 9.96 0 a4.98 4.98 0 1 0 -9.96 0zM441.02 85.79 a4.63 4.63 0 1 0 9.26 0 a4.63 4.63 0 1 0 -9.26 0zM458.82 101.78 a3.56 3.56 0 1 0 7.12 0 a3.56 3.56 0 1 0 -7.12 0zM475.47 39.11 a2.49 2.49 0 1 0 4.98 0 a2.49 2.49 0 1 0 -4.98 0zM471.28 54.78 a2.14 2.14 0 1 0 4.28 0 a2.14 2.14 0 1 0 -4.28 0z" fill="#9da6b0" fill-rule="nonzero"></path><path d="M513.79 478.5L513.79 480.82L530.9 480.82L530.9 478.5zM526.77 479.66 a4.13 4.13 0 1 0 8.26 0 a4.13 4.13 0 1 0 -8.26 0zM510.85 495.61L509.95 497.76L520.89 502.29L521.78 500.14zM517.21 501.21 a4.13 4.13 0 1 0 8.26 0 a4.13 4.13 0 1 0 -8.26 0zM501.58 510.29L499.93 511.94L509.83 521.83L511.47 520.18zM506.52 521.01 a4.13 4.13 0 1 0 8.26 0 a4.13 4.13 0 1 0 -8.26 0zM487.4 520.31L485.25 521.2L487.96 527.73L490.11 526.84zM484.9 527.29 a4.13 4.13 0 1 0 8.26 0 a4.13 4.13 0 1 0 -8.26 0zM470.47 524.14L468.14 524.14L468.14 532.8L470.47 532.8zM465.18 532.8 a4.13 4.13 0 1 0 8.26 0 a4.13 4.13 0 1 0 -8.26 0zM453.36 521.2L451.21 520.31L446.08 532.68L448.24 533.57zM443.03 533.13 a4.13 4.13 0 1 0 8.26 0 a4.13 4.13 0 1 0 -8.26 0zM438.68 511.94L437.03 510.29L428.25 519.06L429.9 520.71zM424.95 519.89 a4.13 4.13 0 1 0 8.26 0 a4.13 4.13 0 1 0 -8.26 0zM428.66 497.76L427.76 495.61L408.84 503.44L409.74 505.6zM405.16 504.52 a4.13 4.13 0 1 0 8.26 0 a4.13 4.13 0 1 0 -8.26 0zM424.82 480.82L424.82 478.5L406.21 478.5L406.21 480.82zM402.08 479.66 a4.13 4.13 0 1 0 8.26 0 a4.13 4.13 0 1 0 -8.26 0zM427.76 463.71L428.66 461.56L421.44 458.57L420.55 460.73zM416.87 459.65 a4.13 4.13 0 1 0 8.26 0 a4.13 4.13 0 1 0 -8.26 0zM437.03 449.03L438.68 447.38L433.3 442.01L431.66 443.66zM428.35 442.83 a4.13 4.13 0 1 0 8.26 0 a4.13 4.13 0 1 0 -8.26 0zM451.21 439.01L453.36 438.12L447.39 423.71L445.24 424.6zM442.18 424.15 a4.13 4.13 0 1 0 8.26 0 a4.13 4.13 0 1 0 -8.26 0zM468.14 435.18L470.47 435.18L470.47 421.72L468.14 421.72zM465.18 421.72 a4.13 4.13 0 1 0 8.26 0 a4.13 4.13 0 1 0 -8.26 0zM485.25 438.12L487.4 439.01L492.65 426.35L490.49 425.46zM487.44 425.91 a4.13 4.13 0 1 0 8.26 0 a4.13 4.13 0 1 0 -8.26 0zM499.93 447.38L501.58 449.03L507.37 443.25L505.72 441.6zM502.41 442.42 a4.13 4.13 0 1 0 8.26 0 a4.13 4.13 0 1 0 -8.26 0zM509.95 461.56L510.85 463.71L527.19 456.94L526.3 454.79zM522.61 455.87 a4.13 4.13 0 1 0 8.26 0 a4.13 4.13 0 1 0 -8.26 0zM424.81 479.66 a44.5 44.5 0 1 0 89 0 a44.5 44.5 0 1 0 -89 0z" fill="rgba(203, 208, 213, 1)"></path><path d="M487.16 520.42 A43.496 43.496 0 0 1 425.07 474.83M425.07 474.83 A88.992 88.992 0 0 0 487.16 520.42" fill="#9da6b0" fill-rule="nonzero"></path><path d="M481.69 480.82 a8.9 8.9 0 1 0 17.8 0 a8.9 8.9 0 1 0 -17.8 0zM429.49 470.29 a8.9 8.9 0 1 0 17.8 0 a8.9 8.9 0 1 0 -17.8 0zM461.33 449.85 a8.9 8.9 0 1 0 17.8 0 a8.9 8.9 0 1 0 -17.8 0zM437.73 508.51 a4.89 4.89 0 1 0 9.78 0 a4.89 4.89 0 1 0 -9.78 0zM467.49 513.4 a8.9 8.9 0 1 0 17.8 0 a8.9 8.9 0 1 0 -17.8 0zM499.09 456.13 a3.56 3.56 0 1 0 7.12 0 a3.56 3.56 0 1 0 -7.12 0zM456.58 503.6 a2.22 2.22 0 1 0 4.44 0 a2.22 2.22 0 1 0 -4.44 0zM462.7 474.68 a5.34 5.34 0 1 0 10.68 0 a5.34 5.34 0 1 0 -10.68 0zM495.66 510.54 a2.22 2.22 0 1 0 4.44 0 a2.22 2.22 0 1 0 -4.44 0zM444.88 492.26 a3.11 3.11 0 1 0 6.22 0 a3.11 3.11 0 1 0 -6.22 0z" fill="#9da6b0" fill-rule="nonzero"></path><path d="M1345.34 123.3L1345.34 126.56L1364.41 126.56L1364.41 123.3zM1358.63 124.93 a5.78 5.78 0 1 0 11.56 0 a5.78 5.78 0 1 0 -11.56 0zM1341.23 147.25L1339.98 150.26L1357.8 157.65L1359.05 154.63zM1352.65 156.14 a5.78 5.78 0 1 0 11.56 0 a5.78 5.78 0 1 0 -11.56 0zM1328.26 167.81L1325.95 170.11L1345.69 189.86L1348 187.55zM1341.07 188.7 a5.78 5.78 0 1 0 11.56 0 a5.78 5.78 0 1 0 -11.56 0zM1308.41 181.84L1305.4 183.08L1312.17 199.43L1315.18 198.18zM1307.89 198.8 a5.78 5.78 0 1 0 11.56 0 a5.78 5.78 0 1 0 -11.56 0zM1284.7 187.2L1281.44 187.2L1281.44 202.8L1284.7 202.8zM1277.29 202.8 a5.78 5.78 0 1 0 11.56 0 a5.78 5.78 0 1 0 -11.56 0zM1260.75 183.08L1257.73 181.84L1248.37 204.43L1251.39 205.68zM1244.1 205.06 a5.78 5.78 0 1 0 11.56 0 a5.78 5.78 0 1 0 -11.56 0zM1240.19 170.11L1237.88 167.81L1216.16 189.54L1218.46 191.84zM1211.53 190.69 a5.78 5.78 0 1 0 11.56 0 a5.78 5.78 0 1 0 -11.56 0zM1226.16 150.26L1224.91 147.25L1206.12 155.03L1207.37 158.05zM1200.97 156.54 a5.78 5.78 0 1 0 11.56 0 a5.78 5.78 0 1 0 -11.56 0zM1220.8 126.56L1220.8 123.3L1204.04 123.3L1204.04 126.56zM1198.26 124.93 a5.78 5.78 0 1 0 11.56 0 a5.78 5.78 0 1 0 -11.56 0zM1224.91 102.6L1226.16 99.59L1216.69 95.67L1215.44 98.68zM1210.29 97.17 a5.78 5.78 0 1 0 11.56 0 a5.78 5.78 0 1 0 -11.56 0zM1237.88 82.05L1240.19 79.74L1226.42 65.97L1224.11 68.27zM1219.48 67.12 a5.78 5.78 0 1 0 11.56 0 a5.78 5.78 0 1 0 -11.56 0zM1257.73 68.02L1260.75 66.77L1256.5 56.51L1253.48 57.75zM1249.21 57.13 a5.78 5.78 0 1 0 11.56 0 a5.78 5.78 0 1 0 -11.56 0zM1281.44 62.65L1284.7 62.65L1284.7 54.11L1281.44 54.11zM1277.29 54.11 a5.78 5.78 0 1 0 11.56 0 a5.78 5.78 0 1 0 -11.56 0zM1305.4 66.77L1308.41 68.02L1318.89 42.72L1315.87 41.47zM1311.6 42.1 a5.78 5.78 0 1 0 11.56 0 a5.78 5.78 0 1 0 -11.56 0zM1325.95 79.74L1328.26 82.05L1342.1 68.2L1339.8 65.89zM1335.17 67.05 a5.78 5.78 0 1 0 11.56 0 a5.78 5.78 0 1 0 -11.56 0zM1339.98 99.59L1341.23 102.6L1368.21 91.42L1366.97 88.41zM1361.81 89.92 a5.78 5.78 0 1 0 11.56 0 a5.78 5.78 0 1 0 -11.56 0zM1220.78 124.93 a62.29 62.29 0 1 0 124.58 0 a62.29 62.29 0 1 0 -124.58 0z" fill="rgba(203, 208, 213, 1)"></path><path d="M1310.45 68.97 A61.294399999999996 61.294399999999996 0 0 1 1317.95 176.54M1317.95 176.54 A124.58879999999999 124.58879999999999 0 0 0 1310.45 68.97" fill="#9da6b0" fill-rule="nonzero"></path><path d="M1275.16 144.5 a12.46 12.46 0 1 0 24.92 0 a12.46 12.46 0 1 0 -24.92 0zM1239.17 104.65 a12.46 12.46 0 1 0 24.92 0 a12.46 12.46 0 1 0 -24.92 0zM1221.82 135.45 a6.85 6.85 0 1 0 13.7 0 a6.85 6.85 0 1 0 -13.7 0zM1236.68 158.3 a8.72 8.72 0 1 0 17.44 0 a8.72 8.72 0 1 0 -17.44 0zM1311.58 153.75 a4.98 4.98 0 1 0 9.96 0 a4.98 4.98 0 1 0 -9.96 0zM1324.7 96.82 a6.23 6.23 0 1 0 12.46 0 a6.23 6.23 0 1 0 -12.46 0zM1276.61 94.68 a12.46 12.46 0 1 0 24.92 0 a12.46 12.46 0 1 0 -24.92 0zM1298.34 69.24 a3.11 3.11 0 1 0 6.22 0 a3.11 3.11 0 1 0 -6.22 0zM1296.76 179.41 a4.36 4.36 0 1 0 8.72 0 a4.36 4.36 0 1 0 -8.72 0zM1331.32 143.38 a3.11 3.11 0 1 0 6.22 0 a3.11 3.11 0 1 0 -6.22 0z" fill="#9da6b0" fill-rule="nonzero"></path><path d="M288.13 497.03L288.13 498.89L293.13 498.89L293.13 497.03zM289.83 497.96 a3.3 3.3 0 1 0 6.6 0 a3.3 3.3 0 1 0 -6.6 0zM285.78 510.72L285.06 512.44L300.06 518.65L300.77 516.93zM297.12 517.79 a3.3 3.3 0 1 0 6.6 0 a3.3 3.3 0 1 0 -6.6 0zM278.37 522.46L277.05 523.78L288.52 535.25L289.84 533.93zM285.88 534.59 a3.3 3.3 0 1 0 6.6 0 a3.3 3.3 0 1 0 -6.6 0zM267.02 530.48L265.3 531.19L270.95 544.83L272.67 544.12zM268.51 544.47 a3.3 3.3 0 1 0 6.6 0 a3.3 3.3 0 1 0 -6.6 0zM253.48 533.55L251.61 533.55L251.61 539.6L253.48 539.6zM249.24 539.6 a3.3 3.3 0 1 0 6.6 0 a3.3 3.3 0 1 0 -6.6 0zM239.79 531.19L238.07 530.48L234.68 538.67L236.4 539.38zM232.24 539.02 a3.3 3.3 0 1 0 6.6 0 a3.3 3.3 0 1 0 -6.6 0zM228.04 523.78L226.72 522.46L214.5 534.69L215.82 536.01zM211.86 535.35 a3.3 3.3 0 1 0 6.6 0 a3.3 3.3 0 1 0 -6.6 0zM220.03 512.44L219.31 510.72L204.76 516.74L205.47 518.47zM201.82 517.61 a3.3 3.3 0 1 0 6.6 0 a3.3 3.3 0 1 0 -6.6 0zM216.96 498.89L216.96 497.03L202.82 497.03L202.82 498.89zM199.52 497.96 a3.3 3.3 0 1 0 6.6 0 a3.3 3.3 0 1 0 -6.6 0zM219.31 485.2L220.03 483.48L214.65 481.25L213.94 482.98zM210.99 482.12 a3.3 3.3 0 1 0 6.6 0 a3.3 3.3 0 1 0 -6.6 0zM226.72 473.46L228.04 472.14L223.81 467.9L222.49 469.22zM219.85 468.56 a3.3 3.3 0 1 0 6.6 0 a3.3 3.3 0 1 0 -6.6 0zM238.07 465.44L239.79 464.73L236.97 457.93L235.25 458.64zM232.81 458.28 a3.3 3.3 0 1 0 6.6 0 a3.3 3.3 0 1 0 -6.6 0zM251.61 462.38L253.48 462.38L253.48 451.68L251.61 451.68zM249.24 451.68 a3.3 3.3 0 1 0 6.6 0 a3.3 3.3 0 1 0 -6.6 0zM265.3 464.73L267.02 465.44L269.41 459.69L267.69 458.97zM265.25 459.33 a3.3 3.3 0 1 0 6.6 0 a3.3 3.3 0 1 0 -6.6 0zM277.05 472.14L278.37 473.46L289.6 462.22L288.28 460.9zM285.64 461.56 a3.3 3.3 0 1 0 6.6 0 a3.3 3.3 0 1 0 -6.6 0zM285.06 483.48L285.78 485.2L301.56 478.67L300.84 476.95zM297.9 477.81 a3.3 3.3 0 1 0 6.6 0 a3.3 3.3 0 1 0 -6.6 0zM216.94 497.96 a35.6 35.6 0 1 0 71.2 0 a35.6 35.6 0 1 0 -71.2 0z" fill="rgba(203, 208, 213, 1)"></path><path d="M282.27 478.38 A34.5968 34.5968 0 0 1 254.71 533.49M254.71 533.49 A71.1936 71.1936 0 0 0 282.27 478.38" fill="#9da6b0" fill-rule="nonzero"></path><path d="M243.58 491.57 a7.12 7.12 0 1 0 14.24 0 a7.12 7.12 0 1 0 -14.24 0zM230.12 471.26 a1.42 1.42 0 1 0 2.84 0 a1.42 1.42 0 1 0 -2.84 0zM238.11 526.59 a5.34 5.34 0 1 0 10.68 0 a5.34 5.34 0 1 0 -10.68 0zM223.22 495.82 a6.76 6.76 0 1 0 13.52 0 a6.76 6.76 0 1 0 -13.52 0zM267.38 501.85 a7.12 7.12 0 1 0 14.24 0 a7.12 7.12 0 1 0 -14.24 0zM272.07 483.32 a4.27 4.27 0 1 0 8.54 0 a4.27 4.27 0 1 0 -8.54 0zM226.89 512.2 a2.49 2.49 0 1 0 4.98 0 a2.49 2.49 0 1 0 -4.98 0zM255.28 530.96 a2.14 2.14 0 1 0 4.28 0 a2.14 2.14 0 1 0 -4.28 0zM258.01 512.27 a2.85 2.85 0 1 0 5.7 0 a2.85 2.85 0 1 0 -5.7 0zM258.69 472.46 a4.98 4.98 0 1 0 9.96 0 a4.98 4.98 0 1 0 -9.96 0z" fill="#9da6b0" fill-rule="nonzero"></path></g><defs><mask id="SvgjsMask1002"><rect width="1440" height="560" fill="#ffffff"></rect></mask></defs></svg>